<mxfile host="app.diagrams.net" modified="2020-09-17T09:27:59.204Z" agent="5.0 (X11; Linux x86_64) AppleWebKit/537.36 (KHTML, like Gecko) Chrome/85.0.4183.102 Safari/537.36" etag="ckxhuLaKmpCwIQUUZr3N" version="13.6.9" type="github">
  <diagram id="u2wsKQtZN4uYwr5G9Hsj" name="Page-1">
    <mxGraphModel dx="911" dy="922" grid="1" gridSize="10" guides="1" tooltips="1" connect="1" arrows="1" fold="1" page="1" pageScale="1" pageWidth="827" pageHeight="1169" math="0" shadow="0">
      <root>
        <mxCell id="0" />
        <mxCell id="1" parent="0" />
        <mxCell id="cPQ0QLwJZgOI13SeKZIp-2" value="Таблица: users" style="text;html=1;align=center;verticalAlign=middle;resizable=0;points=[];autosize=1;rotation=-90;" vertex="1" parent="1">
          <mxGeometry x="30" y="252.5" width="100" height="20" as="geometry" />
        </mxCell>
        <mxCell id="cPQ0QLwJZgOI13SeKZIp-3" value="" style="shape=table;html=1;whiteSpace=wrap;startSize=0;container=1;collapsible=0;childLayout=tableLayout;" vertex="1" parent="1">
          <mxGeometry x="95" y="200" width="335" height="125" as="geometry" />
        </mxCell>
        <mxCell id="cPQ0QLwJZgOI13SeKZIp-4" value="" style="shape=partialRectangle;html=1;whiteSpace=wrap;collapsible=0;dropTarget=0;pointerEvents=0;fillColor=none;top=0;left=0;bottom=0;right=0;points=[[0,0.5],[1,0.5]];portConstraint=eastwest;" vertex="1" parent="cPQ0QLwJZgOI13SeKZIp-3">
          <mxGeometry width="335" height="30" as="geometry" />
        </mxCell>
        <mxCell id="cPQ0QLwJZgOI13SeKZIp-5" value="username" style="shape=partialRectangle;html=1;whiteSpace=wrap;connectable=0;fillColor=#f5f5f5;top=0;left=0;bottom=0;right=0;overflow=hidden;strokeColor=#666666;fontColor=#333333;" vertex="1" parent="cPQ0QLwJZgOI13SeKZIp-4">
          <mxGeometry width="75" height="30" as="geometry" />
        </mxCell>
        <mxCell id="cPQ0QLwJZgOI13SeKZIp-6" value="age" style="shape=partialRectangle;html=1;whiteSpace=wrap;connectable=0;fillColor=#f5f5f5;top=0;left=0;bottom=0;right=0;overflow=hidden;strokeColor=#666666;fontColor=#333333;" vertex="1" parent="cPQ0QLwJZgOI13SeKZIp-4">
          <mxGeometry x="75" width="60" height="30" as="geometry" />
        </mxCell>
        <mxCell id="cPQ0QLwJZgOI13SeKZIp-7" value="email" style="shape=partialRectangle;html=1;whiteSpace=wrap;connectable=0;fillColor=#f5f5f5;top=0;left=0;bottom=0;right=0;overflow=hidden;strokeColor=#666666;fontColor=#333333;" vertex="1" parent="cPQ0QLwJZgOI13SeKZIp-4">
          <mxGeometry x="135" width="200" height="30" as="geometry" />
        </mxCell>
        <mxCell id="cPQ0QLwJZgOI13SeKZIp-8" value="" style="shape=partialRectangle;html=1;whiteSpace=wrap;collapsible=0;dropTarget=0;pointerEvents=0;fillColor=none;top=0;left=0;bottom=0;right=0;points=[[0,0.5],[1,0.5]];portConstraint=eastwest;" vertex="1" parent="cPQ0QLwJZgOI13SeKZIp-3">
          <mxGeometry y="30" width="335" height="50" as="geometry" />
        </mxCell>
        <mxCell id="cPQ0QLwJZgOI13SeKZIp-9" value="Mike" style="shape=partialRectangle;html=1;whiteSpace=wrap;connectable=0;fillColor=none;top=0;left=0;bottom=0;right=0;overflow=hidden;" vertex="1" parent="cPQ0QLwJZgOI13SeKZIp-8">
          <mxGeometry width="75" height="50" as="geometry" />
        </mxCell>
        <mxCell id="cPQ0QLwJZgOI13SeKZIp-10" value="26" style="shape=partialRectangle;html=1;whiteSpace=wrap;connectable=0;fillColor=none;top=0;left=0;bottom=0;right=0;overflow=hidden;" vertex="1" parent="cPQ0QLwJZgOI13SeKZIp-8">
          <mxGeometry x="75" width="60" height="50" as="geometry" />
        </mxCell>
        <mxCell id="cPQ0QLwJZgOI13SeKZIp-11" value="mike@isawesome.com" style="shape=partialRectangle;html=1;whiteSpace=wrap;connectable=0;fillColor=none;top=0;left=0;bottom=0;right=0;overflow=hidden;" vertex="1" parent="cPQ0QLwJZgOI13SeKZIp-8">
          <mxGeometry x="135" width="200" height="50" as="geometry" />
        </mxCell>
        <mxCell id="cPQ0QLwJZgOI13SeKZIp-12" value="" style="shape=partialRectangle;html=1;whiteSpace=wrap;collapsible=0;dropTarget=0;pointerEvents=0;fillColor=none;top=0;left=0;bottom=0;right=0;points=[[0,0.5],[1,0.5]];portConstraint=eastwest;" vertex="1" parent="cPQ0QLwJZgOI13SeKZIp-3">
          <mxGeometry y="80" width="335" height="45" as="geometry" />
        </mxCell>
        <mxCell id="cPQ0QLwJZgOI13SeKZIp-13" value="Stan" style="shape=partialRectangle;html=1;whiteSpace=wrap;connectable=0;fillColor=none;top=0;left=0;bottom=0;right=0;overflow=hidden;" vertex="1" parent="cPQ0QLwJZgOI13SeKZIp-12">
          <mxGeometry width="75" height="45" as="geometry" />
        </mxCell>
        <mxCell id="cPQ0QLwJZgOI13SeKZIp-14" value="32" style="shape=partialRectangle;html=1;whiteSpace=wrap;connectable=0;fillColor=none;top=0;left=0;bottom=0;right=0;overflow=hidden;" vertex="1" parent="cPQ0QLwJZgOI13SeKZIp-12">
          <mxGeometry x="75" width="60" height="45" as="geometry" />
        </mxCell>
        <mxCell id="cPQ0QLwJZgOI13SeKZIp-15" value="stan@ismybro.com" style="shape=partialRectangle;html=1;whiteSpace=wrap;connectable=0;fillColor=none;top=0;left=0;bottom=0;right=0;overflow=hidden;" vertex="1" parent="cPQ0QLwJZgOI13SeKZIp-12">
          <mxGeometry x="135" width="200" height="45" as="geometry" />
        </mxCell>
        <mxCell id="cPQ0QLwJZgOI13SeKZIp-23" style="edgeStyle=orthogonalEdgeStyle;rounded=0;orthogonalLoop=1;jettySize=auto;html=1;exitX=0.5;exitY=1;exitDx=0;exitDy=0;" edge="1" parent="1" source="cPQ0QLwJZgOI13SeKZIp-18">
          <mxGeometry relative="1" as="geometry">
            <mxPoint x="137" y="199" as="targetPoint" />
          </mxGeometry>
        </mxCell>
        <mxCell id="cPQ0QLwJZgOI13SeKZIp-24" style="edgeStyle=orthogonalEdgeStyle;rounded=0;orthogonalLoop=1;jettySize=auto;html=1;exitX=0.5;exitY=1;exitDx=0;exitDy=0;entryX=0.322;entryY=0.033;entryDx=0;entryDy=0;entryPerimeter=0;" edge="1" parent="1" source="cPQ0QLwJZgOI13SeKZIp-18" target="cPQ0QLwJZgOI13SeKZIp-4">
          <mxGeometry relative="1" as="geometry" />
        </mxCell>
        <mxCell id="cPQ0QLwJZgOI13SeKZIp-25" style="edgeStyle=orthogonalEdgeStyle;rounded=0;orthogonalLoop=1;jettySize=auto;html=1;exitX=0.5;exitY=1;exitDx=0;exitDy=0;entryX=0.693;entryY=0.033;entryDx=0;entryDy=0;entryPerimeter=0;" edge="1" parent="1" source="cPQ0QLwJZgOI13SeKZIp-18" target="cPQ0QLwJZgOI13SeKZIp-4">
          <mxGeometry relative="1" as="geometry" />
        </mxCell>
        <mxCell id="cPQ0QLwJZgOI13SeKZIp-18" value="&lt;pre class=&quot;hljs&quot; style=&quot;box-sizing: border-box ; font-family: , &amp;#34;menlo&amp;#34; , &amp;#34;monaco&amp;#34; , &amp;#34;consolas&amp;#34; , &amp;#34;liberation mono&amp;#34; , &amp;#34;courier new&amp;#34; , monospace ; font-size: 14px ; margin-top: 0px ; margin-bottom: 1rem ; overflow: auto ; display: block ; color: rgb(51 , 51 , 51) ; padding: 0.5em ; background: rgb(248 , 248 , 248) ; font-style: normal ; font-weight: 400 ; letter-spacing: normal ; text-align: left ; text-indent: 0px ; text-transform: none ; word-spacing: 0px&quot;&gt;&lt;code class=&quot;sql&quot; style=&quot;box-sizing: border-box ; font-family: , &amp;#34;menlo&amp;#34; , &amp;#34;monaco&amp;#34; , &amp;#34;consolas&amp;#34; , &amp;#34;liberation mono&amp;#34; , &amp;#34;courier new&amp;#34; , monospace ; font-size: inherit ; color: inherit ; overflow-wrap: break-word ; word-break: normal&quot;&gt;&lt;span style=&quot;box-sizing: border-box ; color: rgb(0 , 0 , 0) ; font-weight: bold&quot;&gt;SELECT&lt;/span&gt; &lt;span style=&quot;box-sizing: border-box ; color: rgb(0 , 0 , 0) ; font-weight: bold&quot;&gt;*&lt;/span&gt; &lt;span style=&quot;box-sizing: border-box ; color: rgb(0 , 0 , 0) ; font-weight: bold&quot;&gt;FROM&lt;/span&gt; &lt;span style=&quot;box-sizing: border-box ; background-color: rgb(248 , 248 , 248)&quot;&gt;users&lt;/span&gt;&lt;span style=&quot;box-sizing: border-box ; background-color: rgb(248 , 248 , 248)&quot;&gt;;&lt;/span&gt;&lt;/code&gt;&lt;/pre&gt;" style="text;whiteSpace=wrap;html=1;" vertex="1" parent="1">
          <mxGeometry x="172.5" y="110" width="180" height="40" as="geometry" />
        </mxCell>
        <mxCell id="cPQ0QLwJZgOI13SeKZIp-26" value="Таблица: users" style="text;html=1;align=center;verticalAlign=middle;resizable=0;points=[];autosize=1;rotation=-90;" vertex="1" parent="1">
          <mxGeometry x="40" y="512.5" width="100" height="20" as="geometry" />
        </mxCell>
        <mxCell id="cPQ0QLwJZgOI13SeKZIp-44" style="edgeStyle=orthogonalEdgeStyle;rounded=0;orthogonalLoop=1;jettySize=auto;html=1;exitX=0.5;exitY=1;exitDx=0;exitDy=0;entryX=0.128;entryY=-0.027;entryDx=0;entryDy=0;entryPerimeter=0;" edge="1" parent="1" source="cPQ0QLwJZgOI13SeKZIp-43" target="cPQ0QLwJZgOI13SeKZIp-28">
          <mxGeometry relative="1" as="geometry" />
        </mxCell>
        <mxCell id="cPQ0QLwJZgOI13SeKZIp-45" style="edgeStyle=orthogonalEdgeStyle;rounded=0;orthogonalLoop=1;jettySize=auto;html=1;exitX=0.5;exitY=1;exitDx=0;exitDy=0;entryX=0.693;entryY=0.012;entryDx=0;entryDy=0;entryPerimeter=0;" edge="1" parent="1" source="cPQ0QLwJZgOI13SeKZIp-43" target="cPQ0QLwJZgOI13SeKZIp-28">
          <mxGeometry relative="1" as="geometry" />
        </mxCell>
        <mxCell id="cPQ0QLwJZgOI13SeKZIp-43" value="&lt;pre class=&quot;hljs&quot; style=&quot;box-sizing: border-box ; font-family: , &amp;#34;menlo&amp;#34; , &amp;#34;monaco&amp;#34; , &amp;#34;consolas&amp;#34; , &amp;#34;liberation mono&amp;#34; , &amp;#34;courier new&amp;#34; , monospace ; font-size: 14px ; margin-top: 0px ; margin-bottom: 1rem ; overflow: auto ; display: block ; color: rgb(51 , 51 , 51) ; padding: 0.5em ; background: rgb(248 , 248 , 248) ; font-style: normal ; font-weight: 400 ; letter-spacing: normal ; text-align: left ; text-indent: 0px ; text-transform: none ; word-spacing: 0px&quot;&gt;&lt;code class=&quot;sql&quot; style=&quot;box-sizing: border-box ; font-family: , &amp;#34;menlo&amp;#34; , &amp;#34;monaco&amp;#34; , &amp;#34;consolas&amp;#34; , &amp;#34;liberation mono&amp;#34; , &amp;#34;courier new&amp;#34; , monospace ; font-size: inherit ; color: inherit ; overflow-wrap: break-word ; word-break: normal&quot;&gt;&lt;span style=&quot;box-sizing: border-box ; color: rgb(0 , 0 , 0) ; font-weight: bold&quot;&gt;SELECT&lt;/span&gt; username&lt;span style=&quot;color: inherit ; font-family: , &amp;#34;menlo&amp;#34; , &amp;#34;monaco&amp;#34; , &amp;#34;consolas&amp;#34; , &amp;#34;liberation mono&amp;#34; , &amp;#34;courier new&amp;#34; , monospace ; font-size: inherit ; box-sizing: border-box&quot;&gt;,&lt;/span&gt;&lt;span style=&quot;color: inherit ; font-family: , &amp;#34;menlo&amp;#34; , &amp;#34;monaco&amp;#34; , &amp;#34;consolas&amp;#34; , &amp;#34;liberation mono&amp;#34; , &amp;#34;courier new&amp;#34; , monospace ; font-size: inherit&quot;&gt; &lt;/span&gt;&lt;span style=&quot;color: inherit ; font-family: , &amp;#34;menlo&amp;#34; , &amp;#34;monaco&amp;#34; , &amp;#34;consolas&amp;#34; , &amp;#34;liberation mono&amp;#34; , &amp;#34;courier new&amp;#34; , monospace ; font-size: inherit ; box-sizing: border-box&quot;&gt;email&lt;/span&gt; &lt;span style=&quot;font-size: inherit ; font-family: &amp;#34;helvetica&amp;#34; ; box-sizing: border-box ; color: rgb(0 , 0 , 0) ; font-weight: bold&quot;&gt;FROM&lt;/span&gt;&lt;span style=&quot;color: inherit ; font-size: inherit ; font-family: &amp;#34;helvetica&amp;#34;&quot;&gt; &lt;/span&gt;&lt;span style=&quot;color: inherit ; font-size: inherit ; font-family: &amp;#34;helvetica&amp;#34; ; box-sizing: border-box&quot;&gt;users&lt;/span&gt;&lt;span style=&quot;color: inherit ; font-size: inherit ; font-family: &amp;#34;helvetica&amp;#34; ; box-sizing: border-box&quot;&gt;;&lt;/span&gt;&lt;br&gt;&lt;/code&gt;&lt;/pre&gt;" style="text;whiteSpace=wrap;html=1;" vertex="1" parent="1">
          <mxGeometry x="113.75" y="380" width="297.5" height="40" as="geometry" />
        </mxCell>
        <mxCell id="cPQ0QLwJZgOI13SeKZIp-27" value="" style="shape=table;html=1;whiteSpace=wrap;startSize=0;container=1;collapsible=0;childLayout=tableLayout;" vertex="1" parent="1">
          <mxGeometry x="105" y="460" width="335" height="125" as="geometry" />
        </mxCell>
        <mxCell id="cPQ0QLwJZgOI13SeKZIp-28" value="" style="shape=partialRectangle;html=1;whiteSpace=wrap;collapsible=0;dropTarget=0;pointerEvents=0;fillColor=none;top=0;left=0;bottom=0;right=0;points=[[0,0.5],[1,0.5]];portConstraint=eastwest;" vertex="1" parent="cPQ0QLwJZgOI13SeKZIp-27">
          <mxGeometry width="335" height="30" as="geometry" />
        </mxCell>
        <mxCell id="cPQ0QLwJZgOI13SeKZIp-29" value="username" style="shape=partialRectangle;html=1;whiteSpace=wrap;connectable=0;fillColor=#f5f5f5;top=0;left=0;bottom=0;right=0;overflow=hidden;strokeColor=#666666;fontColor=#333333;" vertex="1" parent="cPQ0QLwJZgOI13SeKZIp-28">
          <mxGeometry width="75" height="30" as="geometry" />
        </mxCell>
        <mxCell id="cPQ0QLwJZgOI13SeKZIp-30" value="age" style="shape=partialRectangle;html=1;whiteSpace=wrap;connectable=0;fillColor=#f5f5f5;top=0;left=0;bottom=0;right=0;overflow=hidden;strokeColor=#666666;fontColor=#333333;" vertex="1" parent="cPQ0QLwJZgOI13SeKZIp-28">
          <mxGeometry x="75" width="60" height="30" as="geometry" />
        </mxCell>
        <mxCell id="cPQ0QLwJZgOI13SeKZIp-31" value="email" style="shape=partialRectangle;html=1;whiteSpace=wrap;connectable=0;fillColor=#f5f5f5;top=0;left=0;bottom=0;right=0;overflow=hidden;strokeColor=#666666;fontColor=#333333;" vertex="1" parent="cPQ0QLwJZgOI13SeKZIp-28">
          <mxGeometry x="135" width="200" height="30" as="geometry" />
        </mxCell>
        <mxCell id="cPQ0QLwJZgOI13SeKZIp-32" value="" style="shape=partialRectangle;html=1;whiteSpace=wrap;collapsible=0;dropTarget=0;pointerEvents=0;fillColor=none;top=0;left=0;bottom=0;right=0;points=[[0,0.5],[1,0.5]];portConstraint=eastwest;" vertex="1" parent="cPQ0QLwJZgOI13SeKZIp-27">
          <mxGeometry y="30" width="335" height="50" as="geometry" />
        </mxCell>
        <mxCell id="cPQ0QLwJZgOI13SeKZIp-33" value="Mike" style="shape=partialRectangle;html=1;whiteSpace=wrap;connectable=0;fillColor=none;top=0;left=0;bottom=0;right=0;overflow=hidden;" vertex="1" parent="cPQ0QLwJZgOI13SeKZIp-32">
          <mxGeometry width="75" height="50" as="geometry" />
        </mxCell>
        <mxCell id="cPQ0QLwJZgOI13SeKZIp-34" value="26" style="shape=partialRectangle;html=1;whiteSpace=wrap;connectable=0;fillColor=none;top=0;left=0;bottom=0;right=0;overflow=hidden;" vertex="1" parent="cPQ0QLwJZgOI13SeKZIp-32">
          <mxGeometry x="75" width="60" height="50" as="geometry" />
        </mxCell>
        <mxCell id="cPQ0QLwJZgOI13SeKZIp-35" value="mike@isawesome.com" style="shape=partialRectangle;html=1;whiteSpace=wrap;connectable=0;fillColor=none;top=0;left=0;bottom=0;right=0;overflow=hidden;" vertex="1" parent="cPQ0QLwJZgOI13SeKZIp-32">
          <mxGeometry x="135" width="200" height="50" as="geometry" />
        </mxCell>
        <mxCell id="cPQ0QLwJZgOI13SeKZIp-36" value="" style="shape=partialRectangle;html=1;whiteSpace=wrap;collapsible=0;dropTarget=0;pointerEvents=0;fillColor=none;top=0;left=0;bottom=0;right=0;points=[[0,0.5],[1,0.5]];portConstraint=eastwest;" vertex="1" parent="cPQ0QLwJZgOI13SeKZIp-27">
          <mxGeometry y="80" width="335" height="45" as="geometry" />
        </mxCell>
        <mxCell id="cPQ0QLwJZgOI13SeKZIp-37" value="Stan" style="shape=partialRectangle;html=1;whiteSpace=wrap;connectable=0;fillColor=none;top=0;left=0;bottom=0;right=0;overflow=hidden;" vertex="1" parent="cPQ0QLwJZgOI13SeKZIp-36">
          <mxGeometry width="75" height="45" as="geometry" />
        </mxCell>
        <mxCell id="cPQ0QLwJZgOI13SeKZIp-38" value="32" style="shape=partialRectangle;html=1;whiteSpace=wrap;connectable=0;fillColor=none;top=0;left=0;bottom=0;right=0;overflow=hidden;" vertex="1" parent="cPQ0QLwJZgOI13SeKZIp-36">
          <mxGeometry x="75" width="60" height="45" as="geometry" />
        </mxCell>
        <mxCell id="cPQ0QLwJZgOI13SeKZIp-39" value="stan@ismybro.com" style="shape=partialRectangle;html=1;whiteSpace=wrap;connectable=0;fillColor=none;top=0;left=0;bottom=0;right=0;overflow=hidden;" vertex="1" parent="cPQ0QLwJZgOI13SeKZIp-36">
          <mxGeometry x="135" width="200" height="45" as="geometry" />
        </mxCell>
      </root>
    </mxGraphModel>
  </diagram>
</mxfile>
